# xmcd
#
# Track frame offsets: 
#        150
#        17132
#        38963
#        57696
#        73989
#        94186
#        106800
#        126080
#        145043
#        162438
#        177748
#        194658
#        211587
#
# Disc length: 3036 seconds
#
# Revision: 1
# Processed by: cddbd v1.5.2PL0 Copyright (c) Steve Scherf et al.
# Submitted via: ExactAudioCopy v1.0b4
#
DISCID=c60bda0d
DTITLE=Flávio José - Tá Bom Que Tá Danado
DYEAR=2006
DGENRE=Forró
TTITLE0=Dificil Demais
TTITLE1=Orgulho De Ser Nordestino
TTITLE2=Pra Você Voltar Pra Mim
TTITLE3=Papel De Confeito
TTITLE4=Quadrado Feito Uma Rapadura
TTITLE5=O Meu Jeito De Amar
TTITLE6=Tá Bom Que Tá Danado
TTITLE7=Respeito É Bom E Eu Gosto
TTITLE8=Sem Não Nem Talvez
TTITLE9=Que Te Faço Gamar
TTITLE10=Tempo De Menino
TTITLE11=Paixão Tirana
TTITLE12=Só Um Dedinho Ou Um Golinho
EXTD=
EXTT0=
EXTT1=
EXTT2=
EXTT3=
EXTT4=
EXTT5=
EXTT6=
EXTT7=
EXTT8=
EXTT9=
EXTT10=
EXTT11=
EXTT12=
PLAYORDER=
